<?xml version="1.0" encoding="utf-8"?>
<!-- Svg Vector Icons : http://www.onlinewebfonts.com/icon -->
<!DOCTYPE svg PUBLIC "-//W3C//DTD SVG 1.1//EN" "http://www.w3.org/Graphics/SVG/1.1/DTD/svg11.dtd">
<svg version="1.1" xmlns="http://www.w3.org/2000/svg" xmlns:xlink="http://www.w3.org/1999/xlink" x="0px" y="0px" viewBox="0 0 256 256" enable-background="new 0 0 256 256" xml:space="preserve">
<metadata> Svg Vector Icons : http://www.onlinewebfonts.com/icon </metadata>
<g><g><g><path fill="#000000" d="M63.3,29.2c-17.7,4.1-33.8,15.9-43.2,31.9c-2,3.3-4.8,10.1-6.5,15c-2.4,7.5-2.9,11-3.4,20.8c-0.4,10.1-0.1,13.1,1.7,20.2c2.3,9.5,5.3,16.6,10.2,24.8c14.5,24.3,40.1,48.5,76.4,72.4c18.1,11.8,22.1,13.7,29.7,13.7s11.8-2,31.2-14.8c20-13.2,33.8-24.2,48.3-38.7c19-19,29-33.5,35.1-51.1c3-8.7,3.1-9.5,3.1-23.7c-0.1-13.9-0.3-15.1-3.1-23.7C236,55.3,221.8,39.7,203,32.3c-22-8.7-48.4-3.9-68.9,12.6l-5.9,4.7l-5.1-4.2c-7.1-5.8-16.4-10.8-26-14.1C87.3,28,72.8,27,63.3,29.2z"/></g></g></g>
</svg>