<?xml version="1.0" encoding="utf-8"?>
<!-- Svg Vector Icons : http://www.onlinewebfonts.com/icon -->
<!DOCTYPE svg PUBLIC "-//W3C//DTD SVG 1.1//EN" "http://www.w3.org/Graphics/SVG/1.1/DTD/svg11.dtd">
<svg version="1.1" xmlns="http://www.w3.org/2000/svg" xmlns:xlink="http://www.w3.org/1999/xlink" x="0px" y="0px" viewBox="0 0 256 256" enable-background="new 0 0 256 256" xml:space="preserve">
<metadata> Svg Vector Icons : http://www.onlinewebfonts.com/icon </metadata>
<g><g><g><path fill="#000000" d="M115.8,10.6C94.1,12.8,71.6,22,54,36c-24.3,19.4-40.5,49.3-43.5,80.6c-3.4,35,9.2,70.2,34,94.9c36.4,36.2,91.2,44.8,136.9,21.7c58-29.5,81.2-100.4,51.7-158.5C211.1,31.1,164.6,5.7,115.8,10.6z M157.1,71c8.9,1.7,15.8,8.5,17.4,17.4c1.7,9.1-3.3,18.6-11.9,22.8c-3,1.4-3.9,1.6-8.9,1.6c-4.8,0-5.9-0.2-8.6-1.4c-1.7-0.8-4-2.3-5.2-3.3l-2.1-1.8l-7,3.4c-28.3,13.5-26.8,12.7-26.3,14.4c0.6,2,0.6,9.4,0,11.4c-0.4,1.5-0.4,1.6,10.5,6.8c6,2.9,13.6,6.5,16.9,8.1l5.9,2.8l2.1-1.8c1.1-1,3.4-2.5,5.2-3.3c2.7-1.3,3.8-1.4,8.6-1.4c5,0.1,5.9,0.2,8.9,1.7c10.8,5.2,15.2,18.2,9.9,28.7c-4.2,8.1-13.7,13.1-22.2,11.5c-10.3-1.9-17.1-9.5-17.8-19.9l-0.3-4.6l-17.7-8.5L96.8,147l-3.4,1.7c-3.2,1.7-3.8,1.8-9.2,1.8c-5.2,0-6.2-0.2-9-1.5c-6.4-3-11.5-9.9-12.3-16.7c-1.1-8.8,4.1-18,12.3-21.8c2.8-1.3,3.8-1.5,9-1.5c5.4,0,6,0.1,9.2,1.8l3.4,1.8l17.7-8.5l17.7-8.5l0.3-4.7c0.8-11.4,8.5-19,20.8-20.3C153.6,70.4,155.3,70.7,157.1,71z"/></g></g></g>
</svg>